<svg width="44" height="44" viewBox="0 0 44 44" fill="none" xmlns="http://www.w3.org/2000/svg">
    <path d="M39.2734 6.875H37.9844V3.86719C37.9844 1.73482 36.2496 0 34.1172 0C31.9848 0 30.25 1.73482 30.25 3.86719V4.92293C30.25 6.25874 29.353 7.44803 28.0685 7.81498L26.8125 8.17386V8.16406C26.8125 7.45216 26.2353 6.875 25.5234 6.875H20.3672C19.6553 6.875 19.0781 7.45216 19.0781 8.16406V13.9219H3.86719C1.73482 13.9219 0 15.6567 0 17.7891V42.7109C0 43.1863 0.26168 43.6232 0.680797 43.8475C0.871406 43.9496 1.08041 44 1.28898 44C1.53905 44 1.78845 43.9273 2.00406 43.7834L6.83564 40.5625H31.3672C33.4996 40.5625 35.2344 38.8277 35.2344 36.6953V23.2031H39.2734C41.8797 23.2031 44 21.0828 44 18.4766V11.6016C44 8.99534 41.8797 6.875 39.2734 6.875ZM21.6562 9.45312H24.2344V20.625H21.6562V9.45312ZM32.6562 36.6953C32.6562 37.4061 32.078 37.9844 31.3672 37.9844H6.44531C6.19085 37.9844 5.94206 38.0597 5.73031 38.2009L2.57812 40.3024V17.7891C2.57812 17.0783 3.1564 16.5 3.86719 16.5H19.0781V21.9141C19.0781 22.626 19.6553 23.2031 20.3672 23.2031H25.5234C26.1857 23.2031 26.7307 22.7035 26.8036 22.0608C27.9519 22.7931 29.3022 23.2031 30.7064 23.2031H32.6562V36.6953ZM41.4219 18.4766C41.4219 19.6612 40.4581 20.625 39.2734 20.625H30.7064C29.1391 20.625 27.6753 19.8343 26.8125 18.5414V10.8552L28.7767 10.294C31.1621 9.61245 32.8281 7.40377 32.8281 4.92293V3.86719C32.8281 3.1564 33.4064 2.57812 34.1172 2.57812C34.828 2.57812 35.4062 3.1564 35.4062 3.86719V8.16406C35.4062 8.87597 35.9834 9.45312 36.6953 9.45312H39.2734C40.4581 9.45312 41.4219 10.4169 41.4219 11.6016V18.4766Z" fill="#6C6F84"/>
    <path d="M6.44531 24.2344H15.0391C15.751 24.2344 16.3281 23.6572 16.3281 22.9453C16.3281 22.2334 15.751 21.6562 15.0391 21.6562H6.44531C5.73341 21.6562 5.15625 22.2334 5.15625 22.9453C5.15625 23.6572 5.73341 24.2344 6.44531 24.2344Z" fill="#6C6F84"/>
    <path d="M28.7891 26.8125H6.44531C5.73341 26.8125 5.15625 27.3897 5.15625 28.1016C5.15625 28.8135 5.73341 29.3906 6.44531 29.3906H28.7891C29.501 29.3906 30.0781 28.8135 30.0781 28.1016C30.0781 27.3897 29.501 26.8125 28.7891 26.8125Z" fill="#6C6F84"/>
    <path d="M28.7891 31.9688H6.44531C5.73341 31.9688 5.15625 32.5459 5.15625 33.2578C5.15625 33.9697 5.73341 34.5469 6.44531 34.5469H28.7891C29.501 34.5469 30.0781 33.9697 30.0781 33.2578C30.0781 32.5459 29.501 31.9688 28.7891 31.9688Z" fill="#6C6F84"/>
    </svg>
    