<svg width="57" height="57" viewBox="0 0 57 57" fill="none" xmlns="http://www.w3.org/2000/svg">
    <path d="M45.125 14.25H26.125L21.375 9.5H9.5C6.8875 9.5 4.75 11.6375 4.75 14.25V42.75C4.75 45.3625 6.8875 47.5 9.5 47.5H46.3125C48.3312 47.5 49.875 45.9562 49.875 43.9375V19C49.875 16.3875 47.7375 14.25 45.125 14.25Z" fill="#FFA000"/>
    <path d="M50.1125 21.375H18.1687C15.9125 21.375 13.8937 23.0375 13.5375 25.2937L9.5 47.5H47.1437C49.4 47.5 51.4187 45.8375 51.775 43.5813L54.7437 26.9563C55.3375 24.1063 53.0812 21.375 50.1125 21.375Z" fill="#FFCA28"/>
    </svg>
    