<svg width="40" height="48" viewBox="0 0 40 48" fill="none" xmlns="http://www.w3.org/2000/svg">
    <path d="M1.12816 27.1256C1.15842 27.1287 1.18868 27.1298 1.21894 27.1298C1.72084 27.1298 2.15805 26.7677 2.2457 26.2637C2.30622 25.9163 3.81923 17.7397 11.6525 17.7397H26.2608V21.9136C26.2608 22.3268 26.504 22.7003 26.8827 22.8683C27.2605 23.0353 27.7008 22.9643 28.0065 22.6857L39.4845 12.2512C39.7016 12.0529 39.8258 11.7733 39.8258 11.479C39.8258 11.1847 39.7016 10.9051 39.4845 10.7068L28.0065 0.272289C27.7008 -0.00631321 27.2594 -0.0783117 26.8827 0.0896847C26.504 0.257681 26.2608 0.631238 26.2608 1.04445V6.26172H11.6525C5.43137 6.26172 0.174438 11.0408 0.174438 16.6963V26.0874C0.174438 26.6289 0.58869 27.0797 1.12816 27.1256ZM2.26135 16.6963C2.26135 12.1719 6.56247 8.34864 11.6525 8.34864H27.3043C27.8813 8.34864 28.3477 7.88117 28.3477 7.30518V3.4037L37.2317 11.479L28.3477 19.5543V16.6963C28.3477 16.1203 27.8813 15.6528 27.3043 15.6528H11.6525C6.78682 15.6528 3.91418 18.2573 2.26135 20.8419V16.6963Z" fill="#6C6F84"/>
    <path d="M38.872 20.8796C38.3347 20.8285 37.8474 21.2062 37.7545 21.7415C37.6929 22.089 36.181 30.2655 28.3477 30.2655H14.7828V26.0917C14.7828 25.6868 14.548 25.3185 14.1818 25.1463C13.8145 24.9752 13.3825 25.0305 13.0716 25.2903L0.550082 35.7249C0.312174 35.9231 0.174438 36.2163 0.174438 36.5262C0.174438 36.8361 0.312174 37.1293 0.550082 37.3276L13.0716 47.7622C13.2625 47.9218 13.5004 48.0042 13.7394 48.0042C13.8896 48.0042 14.0409 47.9719 14.1818 47.9061C14.548 47.734 14.7828 47.3656 14.7828 46.9608V41.7435H28.3477C34.5699 41.7435 39.8258 36.9645 39.8258 31.309V21.9179C39.8258 21.3763 39.4115 20.9255 38.872 20.8796ZM37.7388 31.309C37.7388 35.8334 33.4388 39.6566 28.3477 39.6566H13.7394C13.1634 39.6566 12.6959 40.1241 12.6959 40.7V44.733L2.84777 36.5262L12.6959 28.3195V31.309C12.6959 31.8849 13.1634 32.3524 13.7394 32.3524H28.3477C33.2134 32.3524 36.086 29.748 37.7388 27.1633V31.309Z" fill="#6C6F84"/>
    </svg>
    