<svg width="32" height="48" viewBox="0 0 32 48" fill="none" xmlns="http://www.w3.org/2000/svg">
    <path fill-rule="evenodd" clip-rule="evenodd" d="M31.7537 9.38926C31.7534 9.37901 31.753 9.36876 31.7523 9.3585C31.7493 9.31785 31.7453 9.27794 31.7372 9.23839C31.7372 9.23839 31.7372 9.23839 31.7372 9.23802C31.7292 9.19847 31.7178 9.15928 31.705 9.1212C31.7017 9.11168 31.6984 9.10216 31.6948 9.09263C31.6812 9.05638 31.6658 9.02086 31.6483 8.98643C31.6472 8.9846 31.6464 8.98277 31.6453 8.98094C31.6263 8.94505 31.6043 8.91099 31.5805 8.87767C31.5746 8.86925 31.5684 8.86119 31.5622 8.85277C31.5369 8.81981 31.5106 8.78795 31.4809 8.75828L22.9973 0.274658C22.9676 0.244995 22.9357 0.218627 22.9028 0.193359C22.8944 0.187133 22.8859 0.180542 22.8775 0.174682C22.8442 0.150879 22.8105 0.128906 22.775 0.110229C22.7724 0.108764 22.7699 0.108032 22.7677 0.106567C22.734 0.0889891 22.6988 0.0739744 22.6633 0.0604247C22.6534 0.0567626 22.6439 0.0534666 22.6336 0.0501708C22.5955 0.0373535 22.5571 0.026001 22.5172 0.0179443C22.5168 0.0179443 22.5164 0.0179443 22.5164 0.0179443C22.4773 0.0102539 22.4373 0.00585936 22.3971 0.00292968C22.3868 0.00256348 22.3765 0.00183105 22.3663 0.00146484C22.3557 0.00109864 22.3451 0 22.3344 0H1.09387C0.576049 0 0.156372 0.419677 0.156372 0.937498V41.0646C0.156372 41.5824 0.576049 42.0021 1.09387 42.0021H15.2083V47.0624C15.2083 47.4034 15.3936 47.7176 15.6921 47.8827C15.9909 48.0479 16.3553 48.038 16.6443 47.8567L20.2148 45.6166L23.7854 47.8567C23.9373 47.9519 24.1105 47.9999 24.2838 47.9999C24.4398 47.9999 24.5961 47.9611 24.7375 47.8831C25.036 47.7179 25.2213 47.4037 25.2213 47.0624V42.0021H30.8177C31.3355 42.0021 31.7552 41.5824 31.7552 41.0646V9.42112C31.7552 9.4105 31.7541 9.39988 31.7537 9.38926ZM23.2719 3.20104L28.5545 8.48363H23.2719V3.20104ZM14.7458 28.9566C14.6799 28.7775 14.5726 28.4849 14.57 28.3652C14.6433 28.2744 14.8974 28.1136 15.0531 28.0154C15.3871 27.8045 15.7657 27.565 16.0404 27.1907C16.3176 26.8124 16.4304 26.3756 16.53 25.9903C16.5736 25.8218 16.6439 25.5498 16.7039 25.4469C16.7369 25.4399 16.8061 25.43 16.9361 25.43C17.0405 25.43 17.1573 25.4359 17.2811 25.4421C17.4232 25.449 17.5697 25.4564 17.7227 25.4564C18.0604 25.4564 18.3329 25.4183 18.58 25.3359C19.0118 25.1923 19.3571 24.9144 19.6618 24.669C19.8303 24.5335 20.1123 24.3065 20.2104 24.2926C20.3177 24.3065 20.5993 24.5335 20.7678 24.669C21.0725 24.9144 21.4182 25.1923 21.8499 25.3359C22.0971 25.4183 22.3692 25.4564 22.7072 25.4564C22.8599 25.4564 23.0068 25.449 23.1485 25.4421C23.2723 25.4359 23.3891 25.43 23.4939 25.43C23.6239 25.43 23.6927 25.4395 23.726 25.4469C23.7861 25.5498 23.8564 25.8218 23.8996 25.9903C23.9992 26.3756 24.1124 26.8124 24.3896 27.1907C24.6639 27.565 25.0426 27.8041 25.3769 28.0154C25.5322 28.114 25.7863 28.2744 25.8596 28.3652C25.857 28.4849 25.7497 28.7775 25.6842 28.9566C25.5446 29.3364 25.3868 29.767 25.3868 30.2442C25.3868 30.7214 25.5446 31.152 25.6838 31.5322C25.7497 31.7112 25.857 32.0038 25.8596 32.1236C25.7863 32.2144 25.5322 32.3748 25.3769 32.4733C25.0426 32.6843 24.6639 32.9238 24.3896 33.298C24.1124 33.6763 23.9992 34.1132 23.8996 34.4985C23.8564 34.6666 23.7857 34.939 23.726 35.0419C23.6927 35.0489 23.6239 35.0588 23.4939 35.0588C23.3891 35.0588 23.2723 35.0529 23.1485 35.0467C23.0068 35.0397 22.8599 35.0324 22.7072 35.0324C22.3692 35.0324 22.0971 35.0705 21.8499 35.1529C21.4182 35.2964 21.0725 35.5748 20.7678 35.8198C20.6019 35.9538 20.325 36.1761 20.2148 36.1959C20.1046 36.1761 19.8281 35.9538 19.6622 35.8198C19.3571 35.5748 19.0118 35.2964 18.58 35.1529C18.3329 35.0705 18.0604 35.0324 17.7227 35.0324C17.57 35.0324 17.4232 35.0397 17.2811 35.0467C17.1577 35.0529 17.0409 35.0588 16.9361 35.0588C16.8061 35.0588 16.7373 35.0489 16.7039 35.0419C16.6439 34.939 16.5736 34.6669 16.53 34.4985C16.4308 34.1132 16.3176 33.6763 16.0404 33.298C15.7661 32.9238 15.3874 32.6843 15.0531 32.4733C14.8978 32.3752 14.6436 32.2144 14.5704 32.1236C14.573 32.0042 14.6803 31.7112 14.7458 31.5322C14.8853 31.1524 15.0432 30.7217 15.0432 30.2446C15.0432 29.767 14.885 29.3364 14.7458 28.9566ZM23.3463 45.3676L20.7132 43.7156C20.4085 43.5248 20.0211 43.5248 19.7164 43.7156L17.0833 45.3676V36.9308C17.183 36.9279 17.2807 36.9242 17.3756 36.9195C17.4997 36.9129 17.6169 36.907 17.7227 36.907C17.889 36.907 17.96 36.9224 17.9875 36.9316C18.0992 36.9689 18.3138 37.1418 18.4863 37.2806C18.9239 37.6329 19.4685 38.0712 20.2148 38.0712C20.9611 38.0712 21.5057 37.6329 21.9433 37.2806C22.1158 37.1418 22.3304 36.9689 22.4417 36.9319C22.4696 36.9228 22.5406 36.9074 22.7069 36.9074C22.8127 36.9074 22.9299 36.9133 23.054 36.9195C23.1489 36.9242 23.2467 36.9283 23.3459 36.9308V45.3676H23.3463ZM25.2213 40.1271V36.1753C25.5 35.7967 25.6164 35.3484 25.7149 34.9676C25.7666 34.7676 25.8372 34.4941 25.9017 34.4066C25.9658 34.3187 26.2042 34.1681 26.3781 34.0583C26.8395 33.7668 27.4138 33.4039 27.6419 32.7176C27.8675 32.0405 27.6328 31.4007 27.4442 30.8865C27.3585 30.6533 27.2614 30.3885 27.2614 30.2442C27.2614 30.0999 27.3585 29.8355 27.4442 29.6022C27.6328 29.0881 27.8675 28.4479 27.6419 27.7708C27.4138 27.0849 26.8395 26.722 26.3781 26.4305C26.2042 26.3206 25.9658 26.1698 25.9017 26.0826C25.8372 25.9947 25.7666 25.7211 25.7149 25.5212C25.5802 24.9993 25.4124 24.3497 24.8382 23.9285C24.3812 23.5938 23.852 23.555 23.4935 23.555C23.3419 23.555 23.1954 23.5623 23.054 23.5697C22.9299 23.5759 22.8127 23.5817 22.7072 23.5817C22.5406 23.5817 22.4696 23.5664 22.4421 23.5572C22.3308 23.5202 22.1162 23.3474 21.9437 23.2082C21.5057 22.8563 20.9611 22.4179 20.2148 22.4179C19.4688 22.4179 18.9239 22.8563 18.4863 23.2082C18.3138 23.347 18.0992 23.5202 17.9879 23.5572C17.9604 23.5664 17.889 23.5817 17.7227 23.5817C17.6173 23.5817 17.4997 23.5759 17.3756 23.5693C17.2342 23.5623 17.0881 23.555 16.9361 23.555C16.578 23.555 16.0488 23.5938 15.5921 23.9285C15.0175 24.3497 14.8495 24.9993 14.7147 25.5212C14.6631 25.7211 14.5924 25.9947 14.5283 26.0822C14.4638 26.1698 14.2254 26.3206 14.0515 26.4305C13.5901 26.722 13.0162 27.0849 12.7877 27.7708C12.5621 28.4483 12.7969 29.0881 12.9854 29.6022C13.0711 29.8355 13.1682 30.0999 13.1682 30.2442C13.1682 30.3885 13.0711 30.6533 12.9854 30.8865C12.7969 31.4007 12.5621 32.0405 12.7877 32.718C13.0162 33.4039 13.5904 33.7668 14.0515 34.0583C14.2258 34.1681 14.4638 34.319 14.5283 34.4066C14.5924 34.4941 14.6631 34.7676 14.7147 34.9676C14.8132 35.3484 14.93 35.7971 15.2087 36.1753V40.1271H2.03137V1.875H21.3969V9.42112C21.3969 9.93895 21.8166 10.3586 22.3344 10.3586H29.8802V40.1271H25.2213Z" fill="#6C6F84"/>
    <path fill-rule="evenodd" clip-rule="evenodd" d="M5.6748 10.3594H17.7532C18.2706 10.3594 18.6907 9.9397 18.6907 9.42188C18.6907 8.90405 18.2706 8.48438 17.7532 8.48438H5.6748C5.15698 8.48438 4.7373 8.90405 4.7373 9.42188C4.7373 9.9397 5.15735 10.3594 5.6748 10.3594Z" fill="#6C6F84"/>
    <path fill-rule="evenodd" clip-rule="evenodd" d="M26.3416 13.2188H5.6748C5.15698 13.2188 4.7373 13.6384 4.7373 14.1562C4.7373 14.6741 5.15698 15.0938 5.6748 15.0938H26.3416C26.8594 15.0938 27.2791 14.6741 27.2791 14.1562C27.2791 13.6384 26.8594 13.2188 26.3416 13.2188Z" fill="#6C6F84"/>
    <path fill-rule="evenodd" clip-rule="evenodd" d="M22.5916 17.9453H5.6748C5.15698 17.9453 4.7373 18.3654 4.7373 18.8828C4.7373 19.4006 5.15698 19.8203 5.6748 19.8203H22.5916C23.1094 19.8203 23.5291 19.4006 23.5291 18.8828C23.5291 18.3654 23.1094 17.9453 22.5916 17.9453Z" fill="#6C6F84"/>
    <path fill-rule="evenodd" clip-rule="evenodd" d="M26.3416 17.9453C25.8252 17.9453 25.4041 18.3665 25.4041 18.8828C25.4041 19.3992 25.8252 19.8203 26.3416 19.8203C26.8583 19.8203 27.2791 19.3992 27.2791 18.8828C27.2791 18.3665 26.8583 17.9453 26.3416 17.9453Z" fill="#6C6F84"/>
    </svg>
    