<svg width="57" height="57" viewBox="0 0 57 57" fill="none" xmlns="http://www.w3.org/2000/svg">
    <path d="M16.1455 5.62891H36.808C42.006 9.31035 46.5384 13.8511 50.2101 19.056V50.837H16.1455V5.62891Z" fill="url(#paint0_linear)"/>
    <path d="M16.1455 5.62891H36.808C42.006 9.31035 46.5384 13.8511 50.2101 19.056V50.837H16.1455V5.62891Z" stroke="#C8C8C8" stroke-width="0.5"/>
    <path d="M36.8037 5.62891C41.9953 9.31921 46.5274 13.8585 50.2094 19.056C48.9852 17.7978 47.501 16.8224 45.8604 16.1978C44.2199 15.5732 42.4627 15.3146 40.7118 15.44C40.9615 13.6065 40.7328 11.7396 40.0481 10.0205C39.3633 8.30141 38.2457 6.78859 36.8037 5.62891Z" fill="url(#paint1_linear)"/>
    <path d="M36.8037 5.62891C41.9953 9.31921 46.5274 13.8585 50.2094 19.056C48.9852 17.7978 47.501 16.8224 45.8604 16.1978C44.2199 15.5732 42.4627 15.3146 40.7118 15.44C40.9615 13.6065 40.7328 11.7396 40.0481 10.0205C39.3633 8.30141 38.2457 6.78859 36.8037 5.62891V5.62891Z" stroke="#C8C8C8" stroke-width="0.5"/>
    <path d="M9.50977 11.5703H34.6254V16.3797H9.50977V11.5703Z" stroke="#C8C8C8" stroke-width="4"/>
    <path d="M28.1775 35.3651C29.0075 33.737 29.9587 31.9041 30.7068 30.0623L31.0061 29.3355C30.0193 25.5806 29.4279 22.5668 29.9569 20.6181C30.0678 20.3557 30.2592 20.1353 30.5035 19.9887C30.7478 19.842 31.0323 19.7768 31.316 19.8023H31.7684C32.6306 19.7898 33.0349 20.8853 33.0812 21.311C33.0878 21.9561 33.0033 22.599 32.8301 23.2205C32.8724 22.5597 32.7747 21.8975 32.5433 21.2771C32.187 20.4952 31.8468 20.0303 31.5422 19.9537C31.4338 20.0415 31.3458 20.1518 31.2843 20.277C31.2228 20.4021 31.1892 20.5392 31.186 20.6786C31.0956 21.2316 31.0497 21.7909 31.0488 22.3512C31.0909 23.9985 31.3502 25.6329 31.8201 27.2123C31.9163 26.9344 31.9982 26.6672 32.0695 26.4161C32.1746 26.0206 32.8408 23.404 32.8408 23.404C32.8408 23.404 32.6733 26.8881 32.4382 27.9408C32.3883 28.1635 32.3331 28.3843 32.2743 28.6088C33.063 30.8701 34.3717 32.9147 36.0951 34.5777C36.772 35.1649 37.513 35.674 38.3039 36.0954C39.7878 35.8715 41.2865 35.759 42.7873 35.7587C43.991 35.6373 45.2017 35.9078 46.2393 36.53C46.4679 36.7606 46.6031 37.0677 46.6187 37.3921C46.611 37.5616 46.5865 37.7298 46.5457 37.8944C46.5635 37.8036 46.5635 37.3601 45.2009 36.9219C43.3869 36.5768 41.5267 36.5509 39.7039 36.8453C42.4934 38.2097 45.2133 38.8884 46.0737 38.4822C46.2553 38.3609 46.4134 38.2076 46.5404 38.0298C46.4806 38.3246 46.3935 38.6132 46.2803 38.8919C46.1086 39.11 45.8742 39.2704 45.6088 39.3515C44.2479 39.7077 40.7068 38.8741 37.6199 37.1107C34.1347 37.6457 30.6987 38.4624 27.3456 39.5528C24.362 44.7825 22.1176 47.1836 20.2936 46.2699L19.6221 45.9332C19.4997 45.8345 19.4101 45.7009 19.3652 45.5501C19.3204 45.3993 19.3224 45.2385 19.3709 45.0889C19.5829 44.0486 20.8886 42.4794 23.5106 40.9136C23.792 40.7355 25.0496 40.0782 25.0496 40.0782C25.0496 40.0782 24.118 40.9796 23.9007 41.1559C21.8077 42.8712 20.2634 45.0283 20.3008 45.8655V45.9386C22.082 45.6856 24.745 42.0661 28.1721 35.3597L28.1775 35.3651ZM29.2587 35.9155C28.7212 36.9209 28.1713 37.9197 27.6092 38.9115C30.4668 37.7663 33.4371 36.9257 36.471 36.4035C36.079 36.134 35.7004 35.8457 35.3363 35.5396C33.772 34.1904 32.4992 32.5363 31.5957 30.6786C30.935 32.4761 30.1512 34.2258 29.2498 35.9155" fill="#F91D0A"/>
    <path d="M6.67969 8.85156H37.4312V19.1882H6.67969V8.85156Z" fill="url(#paint2_linear)"/>
    <path d="M38.0171 19.8068H6.12207V8.23047H38.0171V19.8068ZM36.8718 9.37759H7.26919V18.6561H36.8718V9.37759Z" fill="url(#paint3_linear)"/>
    <path d="M14.7168 10.3634H16.954C17.2365 10.3453 17.5196 10.3886 17.7837 10.4904C18.0479 10.5922 18.2868 10.75 18.4841 10.953C18.8678 11.4213 19.0588 12.018 19.0185 12.622C19.0588 13.2287 18.8679 13.8282 18.4841 14.2999C18.2863 14.5019 18.0472 14.6588 17.7831 14.7596C17.519 14.8605 17.2361 14.903 16.954 14.8842H16.0634V17.2871H14.7168V10.3634ZM16.0652 11.6566V13.591H16.8115C16.9249 13.5975 17.0382 13.5782 17.1431 13.5348C17.248 13.4913 17.3417 13.4246 17.4172 13.3398C17.5699 13.1348 17.6456 12.8826 17.6309 12.6273C17.6473 12.3719 17.5714 12.1191 17.4172 11.9148C17.3417 11.83 17.2481 11.7633 17.1432 11.7198C17.0383 11.6763 16.9249 11.6571 16.8115 11.6637H16.0652V11.6566ZM21.3181 11.7189V15.9387H21.8008C22.0382 15.9546 22.276 15.9145 22.495 15.8217C22.7141 15.7289 22.9083 15.5859 23.062 15.4043C23.3835 14.9442 23.5381 14.388 23.5001 13.8279C23.5381 13.2712 23.3847 12.7181 23.0655 12.2604C22.911 12.0789 22.7161 11.936 22.4966 11.8432C22.277 11.7504 22.0387 11.7103 21.8008 11.726H21.3181V11.7189ZM19.9697 10.3758H21.3947C21.99 10.3455 22.586 10.4184 23.1564 10.5914C23.5546 10.7463 23.9014 11.0098 24.1574 11.352C24.4075 11.6739 24.5932 12.041 24.7043 12.4332C24.8289 12.885 24.8889 13.3522 24.8824 13.8208C24.8889 14.2935 24.829 14.7648 24.7043 15.2208C24.5932 15.6131 24.4075 15.9802 24.1574 16.3021C23.8982 16.6452 23.5493 16.9102 23.1492 17.068C22.5777 17.2415 21.9808 17.3168 21.384 17.2907H19.959V10.3634L19.9697 10.3758ZM25.912 10.3634H29.5689V11.7136H27.271V13.0014H29.4246V14.3516H27.271V17.2871H25.9226V10.3634" fill="#FFF9F9"/>
    <defs>
    <linearGradient id="paint0_linear" x1="26.0898" y1="41.043" x2="38.6905" y2="18.2693" gradientUnits="userSpaceOnUse">
    <stop stop-color="white"/>
    <stop offset="1" stop-color="#E1E1E1"/>
    </linearGradient>
    <linearGradient id="paint1_linear" x1="41.9604" y1="13.7674" x2="43.8984" y2="11.9808" gradientUnits="userSpaceOnUse">
    <stop stop-color="white"/>
    <stop offset="1" stop-color="#C8C8C8"/>
    </linearGradient>
    <linearGradient id="paint2_linear" x1="25.0426" y1="23.2138" x2="19.0683" y2="4.82594" gradientUnits="userSpaceOnUse">
    <stop offset="0.127" stop-color="#8A0000"/>
    <stop offset="0.244" stop-color="#900000" stop-opacity="0.999"/>
    <stop offset="0.398" stop-color="#A00000" stop-opacity="0.999"/>
    <stop offset="0.573" stop-color="#BC0000" stop-opacity="0.998"/>
    <stop offset="0.761" stop-color="#E20000" stop-opacity="0.997"/>
    <stop offset="0.867" stop-color="#FA0000" stop-opacity="0.996"/>
    </linearGradient>
    <linearGradient id="paint3_linear" x1="25.2937" y1="23.9411" x2="18.8473" y2="4.09619" gradientUnits="userSpaceOnUse">
    <stop offset="0.315" stop-color="#5E0000"/>
    <stop offset="0.444" stop-color="#830000" stop-opacity="0.999"/>
    <stop offset="0.618" stop-color="#AE0000" stop-opacity="0.998"/>
    <stop offset="0.775" stop-color="#CD0000" stop-opacity="0.997"/>
    <stop offset="0.908" stop-color="#E00000" stop-opacity="0.996"/>
    <stop offset="1" stop-color="#E70000" stop-opacity="0.996"/>
    </linearGradient>
    </defs>
    </svg>
    