<svg width="36" height="54" viewBox="0 0 36 54" fill="none" xmlns="http://www.w3.org/2000/svg">
    <path d="M23.0479 30.0273C19.4293 30.0273 16.4854 32.9713 16.4854 36.5898C16.4854 38.4462 17.2614 40.1237 18.5046 41.3186C18.652 41.4603 18.806 41.5952 18.9661 41.7227C18.9664 41.7229 18.9667 41.7231 18.967 41.7234C19.0464 41.7867 19.1272 41.8482 19.2096 41.9078C19.2112 41.9089 19.2128 41.91 19.2143 41.9112C19.2953 41.9698 19.3776 42.0265 19.4613 42.0814C19.4649 42.0839 19.4688 42.0862 19.4724 42.0886C19.5541 42.1419 19.6369 42.1936 19.7211 42.2433C19.7276 42.2471 19.7343 42.2509 19.7409 42.2547C19.8225 42.3026 19.905 42.3489 19.9889 42.3933C19.9988 42.3986 20.009 42.4035 20.0189 42.4087C20.0998 42.451 20.1814 42.492 20.2641 42.5309C20.2785 42.5376 20.293 42.5438 20.3074 42.5505C20.3865 42.5871 20.4663 42.6226 20.5471 42.6561C20.5662 42.664 20.5856 42.6712 20.6048 42.6789C20.6817 42.7099 20.759 42.7402 20.8373 42.7684C20.8616 42.7771 20.8865 42.7849 20.9109 42.7934C20.985 42.819 21.0592 42.8442 21.1345 42.8672C21.1647 42.8764 21.1955 42.8844 21.2259 42.8932C21.2965 42.9136 21.3669 42.9341 21.4384 42.9521C21.4753 42.9615 21.5128 42.9692 21.55 42.978C21.616 42.9934 21.6819 43.0094 21.7487 43.0228C21.793 43.0318 21.838 43.0388 21.8828 43.0468C21.9435 43.0577 22.004 43.0695 22.0653 43.0787C22.1184 43.0868 22.1722 43.0925 22.2258 43.0992C22.2797 43.106 22.3332 43.1139 22.3875 43.1193C22.4535 43.126 22.5203 43.1299 22.5869 43.1346C22.6297 43.1376 22.6722 43.1419 22.7152 43.1442C22.8253 43.1497 22.9362 43.1525 23.0476 43.1525C23.1591 43.1525 23.27 43.1496 23.3801 43.1442C23.4232 43.142 23.4656 43.1376 23.5084 43.1346C23.575 43.1299 23.6418 43.126 23.7078 43.1193C23.7621 43.1139 23.8156 43.106 23.8695 43.0992C23.923 43.0925 23.9768 43.0868 24.03 43.0787C24.0913 43.0695 24.1518 43.0577 24.2125 43.0468C24.2573 43.0388 24.3023 43.0318 24.3466 43.0228C24.4134 43.0094 24.4793 42.9934 24.5453 42.978C24.5825 42.9693 24.62 42.9615 24.6569 42.9521C24.7284 42.9341 24.7989 42.9136 24.8694 42.8932C24.8998 42.8844 24.9306 42.8764 24.9608 42.8672C25.0361 42.8442 25.1103 42.819 25.1844 42.7934C25.2088 42.7849 25.2337 42.7772 25.258 42.7684C25.3363 42.7402 25.4136 42.7099 25.4905 42.6789C25.5097 42.6712 25.5291 42.6641 25.5482 42.6561C25.629 42.6226 25.7087 42.5871 25.7879 42.5505C25.8023 42.5438 25.8168 42.5377 25.8312 42.5309C25.9139 42.492 25.9955 42.451 26.0764 42.4087C26.0864 42.4034 26.0965 42.3985 26.1064 42.3933C26.1903 42.3489 26.2728 42.3026 26.3544 42.2547C26.361 42.2509 26.3677 42.2471 26.3742 42.2433C26.4583 42.1935 26.5411 42.1419 26.6229 42.0886C26.6266 42.0862 26.6304 42.0839 26.634 42.0814C26.7177 42.0266 26.8 41.9698 26.881 41.9112C26.8826 41.9101 26.8841 41.909 26.8857 41.9078C26.9681 41.8482 27.0489 41.7867 27.1283 41.7234C27.1286 41.7232 27.1289 41.723 27.1292 41.7227C27.2893 41.5951 27.4432 41.4602 27.5907 41.3186C28.8339 40.1237 29.6099 38.4462 29.6099 36.5898C29.6104 32.9713 26.6664 30.0273 23.0479 30.0273Z" fill="#6C6F84"/>
    <path d="M34.1532 0.75H1.84548C1.00911 0.75 0.331055 1.42806 0.331055 2.26442V45.1731C0.331055 46.0094 1.00911 46.6875 1.84548 46.6875H15.4753V42.4869C14.1649 40.816 13.4561 38.767 13.4561 36.5913C13.4561 31.3027 17.7587 27 23.0474 27C28.3361 27 32.6388 31.3027 32.6388 36.5913C32.6388 38.767 31.9299 40.816 30.6195 42.4869V46.6875H34.1532C34.9895 46.6875 35.6676 46.0094 35.6676 45.1731V2.26442C35.6676 1.42806 34.9895 0.75 34.1532 0.75ZM7.90317 7.3125H13.9609C14.7972 7.3125 15.4753 7.99056 15.4753 8.82692C15.4753 9.66329 14.7972 10.3413 13.9609 10.3413H7.90317C7.06681 10.3413 6.38875 9.66329 6.38875 8.82692C6.38875 7.99056 7.06681 7.3125 7.90317 7.3125ZM28.0955 25.4856H22.0378C21.2014 25.4856 20.5234 24.8075 20.5234 23.9712C20.5234 23.1348 21.2014 22.4567 22.0378 22.4567H28.0955C28.9318 22.4567 29.6099 23.1348 29.6099 23.9712C29.6099 24.8075 28.9318 25.4856 28.0955 25.4856ZM28.0955 20.4375H7.90317C7.06681 20.4375 6.38875 19.7594 6.38875 18.9231C6.38875 18.0867 7.06681 17.4087 7.90317 17.4087H28.0955C28.9318 17.4087 29.6099 18.0867 29.6099 18.9231C29.6099 19.7594 28.9318 20.4375 28.0955 20.4375ZM28.0955 15.3894H7.90317C7.06681 15.3894 6.38875 14.7114 6.38875 13.875C6.38875 13.0386 7.06681 12.3606 7.90317 12.3606H28.0955C28.9318 12.3606 29.6099 13.0386 29.6099 13.875C29.6099 14.7114 28.9318 15.3894 28.0955 15.3894Z" fill="#6C6F84"/>
    <path d="M18.5039 45.0391V51.7382C18.5039 52.2967 18.8113 52.8099 19.3037 53.0735C19.7961 53.3369 20.3937 53.3083 20.8583 52.9983L23.0472 51.539L25.236 52.9982C25.4894 53.1672 25.7823 53.2526 26.0761 53.2526C26.3212 53.2526 26.5667 53.1933 26.7906 53.0735C27.283 52.81 27.5904 52.2968 27.5904 51.7382V45.0391C26.2374 45.7699 24.6899 46.1853 23.0472 46.1853C21.4044 46.1853 19.857 45.7699 18.5039 45.0391Z" fill="#6C6F84"/>
    </svg>
    