<svg width="48" height="48" viewBox="0 0 48 48" fill="none" xmlns="http://www.w3.org/2000/svg">
    <path d="M24 0C10.7452 0 0 10.7452 0 24C0 37.2548 10.7452 48 24 48C37.2548 48 48 37.2548 48 24C47.985 10.7514 37.2486 0.0149896 24 0ZM24 46.4C11.6288 46.4 1.6 36.3712 1.6 24C1.6 11.6288 11.6288 1.6 24 1.6C36.3712 1.6 46.4 11.6288 46.4 24C46.3859 36.3653 36.3653 46.3859 24 46.4Z" fill="#6C6F84"/>
    <path d="M24.0001 3.20312C12.5126 3.20312 3.20007 12.5156 3.20007 24.0031C3.20007 35.4907 12.5126 44.8031 24.0001 44.8031C35.4876 44.8031 44.8001 35.4907 44.8001 24.0031C44.7868 12.5211 35.4821 3.21635 24.0001 3.20312ZM24.0001 43.2031C13.3962 43.2031 4.80007 34.607 4.80007 24.0031C4.80007 13.3993 13.3962 4.80313 24.0001 4.80313C34.6039 4.80313 43.2001 13.3993 43.2001 24.0031C43.1877 34.6019 34.5988 43.1908 24.0001 43.2031Z" fill="#6C6F84"/>
    <path d="M23.9998 16.7953C26.6508 16.7953 28.7998 14.6463 28.7998 11.9953C28.7998 9.34435 26.6508 7.19531 23.9998 7.19531C21.3489 7.19531 19.1998 9.34435 19.1998 11.9953C19.2025 14.6452 21.35 16.7927 23.9998 16.7953ZM23.9998 8.79531C25.7671 8.79531 27.1998 10.228 27.1998 11.9953C27.1998 13.7626 25.7671 15.1953 23.9998 15.1953C22.2325 15.1953 20.7998 13.7626 20.7998 11.9953C20.7998 10.228 22.2325 8.79531 23.9998 8.79531Z" fill="#6C6F84"/>
    <path d="M35.1415 17.6016H35.1287L26.7287 18.356C26.4423 18.3821 26.1556 18.3952 25.8687 18.3952H22.1311C21.8447 18.3952 21.5586 18.3824 21.2727 18.3568L12.8583 17.6016C11.5368 17.4978 10.3813 18.4849 10.2775 19.8064C10.1737 21.1279 11.1608 22.2834 12.4823 22.3872L19.2719 23.0032C19.6839 23.0404 19.9995 23.3856 19.9999 23.7992V25.6392C20.0002 26.0392 19.9253 26.4357 19.7791 26.808L15.9295 36.612C15.3929 37.8244 15.9407 39.2422 17.1531 39.7788C18.3655 40.3154 19.7833 39.7676 20.3199 38.5552L23.9887 29.5848L27.6919 38.5792C28.2441 39.7611 29.6394 40.2855 30.8333 39.7598C32.0273 39.2342 32.5827 37.851 32.0839 36.6456L28.2207 26.8056C28.0749 26.4337 28 26.0378 27.9999 25.6384V23.7984C28.0003 23.3848 28.316 23.0396 28.7279 23.0024L35.5063 22.3872C36.828 22.2865 37.8179 21.1333 37.7171 19.8116C37.6164 18.4899 36.4632 17.5001 35.1415 17.6008V17.6016ZM35.3727 20.7952L28.5831 21.4112C27.3448 21.5178 26.3953 22.5564 26.3999 23.7992V25.6392C26.3996 26.2396 26.5122 26.8348 26.7319 27.3936L30.6087 37.2648C30.7972 37.6644 30.626 38.1412 30.2263 38.3296C29.8267 38.518 29.35 38.3468 29.1615 37.9472L25.4663 28.9768C25.2212 28.383 24.6423 27.9957 23.9999 27.9957C23.3576 27.9957 22.7786 28.383 22.5335 28.9768L18.8487 37.9232C18.7342 38.1955 18.4789 38.3825 18.1847 38.4096C17.8906 38.4367 17.6055 38.2995 17.4431 38.0527C17.2807 37.806 17.2675 37.4898 17.4087 37.2304L21.2719 27.3904C21.4901 26.8321 21.6014 26.2378 21.5999 25.6384V23.7984C21.6053 22.5549 20.6556 21.5154 19.4167 21.4088L12.6159 20.7952C12.1741 20.7641 11.8412 20.3806 11.8723 19.9388C11.9035 19.497 12.2869 19.1641 12.7287 19.1952L21.1287 19.9496C21.4615 19.9795 21.7951 19.9944 22.1295 19.9944H25.8671C26.2015 19.9944 26.5351 19.9795 26.8679 19.9496L35.2639 19.1952C35.4753 19.1785 35.6847 19.2469 35.8454 19.3852C36.0062 19.5236 36.105 19.7204 36.1199 19.932C36.1373 20.146 36.0679 20.358 35.9274 20.5204C35.7869 20.6827 35.587 20.7817 35.3727 20.7952Z" fill="#6C6F84"/>
    </svg>
    