<svg width="48" height="48" viewBox="0 0 48 48" fill="none" xmlns="http://www.w3.org/2000/svg">
    <g clip-path="url(#clip0_3087:52920)">
    <path d="M23.5625 7.40625H37.5003V12.5616H23.5625V7.40625Z" fill="#828282"/>
    <path d="M41.4031 0H19.6597C17.6759 0 16.0625 1.61344 16.0625 3.59719V37.1766C16.0625 37.9537 16.6916 38.5828 17.4687 38.5828H41.4031C43.3859 38.5828 45.0003 36.9694 45.0003 34.9866V3.59719C45.0003 1.61344 43.3859 0 41.4031 0V0ZM26.3375 35.0616H22.1562C21.3791 35.0616 20.75 34.4325 20.75 33.6553C20.75 32.8791 21.3791 32.2491 22.1562 32.2491H26.3375C27.1137 32.2491 27.7437 32.8791 27.7437 33.6553C27.7437 34.4325 27.1137 35.0616 26.3375 35.0616ZM36.7831 30.3741H22.1562C21.3791 30.3741 20.75 29.745 20.75 28.9678C20.75 28.1916 21.3791 27.5616 22.1562 27.5616H36.7831C37.5594 27.5616 38.1894 28.1916 38.1894 28.9678C38.1894 29.745 37.5594 30.3741 36.7831 30.3741ZM20.75 24.2803C20.75 23.5041 21.3791 22.8741 22.1562 22.8741H35.1566C35.9328 22.8741 36.5628 23.5041 36.5628 24.2803C36.5628 25.0575 35.9328 25.6866 35.1566 25.6866H22.1562C21.3791 25.6866 20.75 25.0575 20.75 24.2803ZM38.9066 20.9991H22.1562C21.3791 20.9991 20.75 20.37 20.75 19.5928C20.75 18.8166 21.3791 18.1866 22.1562 18.1866H38.9066C39.6828 18.1866 40.3128 18.8166 40.3128 19.5928C40.3128 20.37 39.6828 20.9991 38.9066 20.9991ZM40.3128 13.9678C40.3128 14.745 39.6828 15.3741 38.9066 15.3741H22.1562C21.3791 15.3741 20.75 14.745 20.75 13.9678V6C20.75 5.22375 21.3791 4.59375 22.1562 4.59375H38.9066C39.6828 4.59375 40.3128 5.22375 40.3128 6V13.9678Z" fill="#828282"/>
    <path d="M13.2497 37.1773V7.54297H6.5925C4.61156 7.54297 3 9.15641 3 11.1392V44.4036C3 46.3873 4.61156 48.0008 6.5925 48.0008H27.9084L15.5756 40.947C14.1975 40.2523 13.2497 38.8236 13.2497 37.1773Z" fill="#828282"/>
    <path d="M31.9125 46.8498C31.9275 46.7664 31.9359 46.6811 31.9359 46.593V41.3945H22.2188L31.9125 46.8498Z" fill="#828282"/>
    </g>
    <defs>
    <clipPath id="clip0_3087:52920">
    <rect width="48" height="48" fill="white"/>
    </clipPath>
    </defs>
    </svg>
    