<svg width="60" height="60" viewBox="0 0 60 60" fill="none" xmlns="http://www.w3.org/2000/svg">
    <path d="M25.9406 40.1192L25.9383 40.1209C25.7935 40.2249 25.6228 40.2871 25.445 40.3004C25.2671 40.3138 25.0891 40.2779 24.9304 40.1966C24.7717 40.1154 24.6384 39.992 24.5452 39.8399L24.9716 39.5787L24.5452 39.8399C24.4521 39.6879 24.4026 39.5131 24.4023 39.3348V39.334L24.4023 20.7263C24.4023 20.726 24.4023 20.7258 24.4023 20.7256V20.7246L25.9406 40.1192ZM25.9406 40.1192L38.7321 30.8125M25.9406 40.1192L38.7321 30.8125M38.7321 30.8125C38.7331 30.8118 38.7342 30.811 38.7353 30.8102M38.7321 30.8125L38.7353 30.8102M38.7353 30.8102C38.8596 30.7216 38.961 30.6046 39.0312 30.469C39.0312 30.469 39.0312 30.469 39.0312 30.469L38.7353 30.8102ZM38.7353 29.2425C38.8596 29.3312 38.961 29.4481 39.0312 29.5838L38.7353 29.2425ZM38.7353 29.2425C38.7342 29.2417 38.7331 29.241 38.7321 29.2402L38.7353 29.2425ZM4.25 30C4.25 15.78 15.78 4.25 30 4.25C44.22 4.25 55.75 15.78 55.75 30C55.75 44.22 44.22 55.75 30 55.75C15.78 55.75 4.25 44.22 4.25 30Z" fill="#E0E0E0" stroke="#E0E0E0"/>
    </svg>
    